<svg xmlns="http://www.w3.org/2000/svg" viewBox="0 0 35 35"><path d="M1 1h7v7h-7zM9 1h4v1h1v-1h1v2h-1v2h-1v-1h-1v2h-2v-1h1v-2h1v-1h-2v1h-1zM17 1h1v1h-1zM20 1h6v1h-1v1h-1v2h-1v-3h-1v2h-1v-2h-1zM27 1h7v7h-7zM2 2v5h5v-5zM18 2h2v2h-1v-1h-1zM28 2v5h5v-5zM3 3h3v3h-3zM17 3h1v2h-2v3h-1v-4h2zM29 3h3v3h-3zM9 4h1v1h-1zM18 5h3v2h-1v2h1v1h1v3h-2v1h-2v-1h1v-1h-1v-2h-1v-1h1v-1h1v-2h-1zM25 5h1v3h-1zM23 6h1v2h-1zM9 7h1v1h1v-1h1v3h-1v-1h-2zM13 7h1v1h-1zM17 7h1v1h-1zM21 7h1v1h-1zM24 8h1v1h-1zM1 9h1v1h-1zM3 9h2v1h-1v3h-1v-2h-1v-1h1zM6 9h3v1h-3zM13 9h1v2h-1v2h-1v-1h-1v-1h1v-1h1zM15 9h1v1h-1zM22 9h2v1h-2zM25 9h1v1h1v-1h1v2h2v1h-1v1h1v1h-2v-2h-1v-1h-2v1h-1v-2h1zM30 9h1v2h-1zM32 9h2v3h-1v2h-1v-2h-1v-1h2v-1h-1zM9 10h1v1h-1zM1 11h1v1h-1zM7 11h2v2h-1v-1h-1zM15 11h1v1h1v1h-3v-1h1zM20 11v1h1v-1zM5 12h2v1h1v1h-1v1h-1v1h-2v-1h1v-1h1v-1h-1zM26 12h1v4h1v-1h2v-1h1v2h1v1h1v3h-1v-2h-1v-1h-1v2h-1v1h-2v-2h-2v-1h1v-2h-1v-2h1zM30 12h1v1h-1zM2 13h1v1h-1zM9 13h3v1h-3zM13 13h1v1h-1zM23 13h1v2h-1v1h2v1h-1v1h1v1h-1v1h-1v-2h-1v-1h-1v1h-2v-2h-1v1h-1v-1h-1v1h1v2h1v1h1v1h2v1h1v1h-2v-1h-3v1h-1v1h-1v2h-2v-1h1v-2h-1v1h-3v-1h2v-1h4v-2h-1v-1h1v-1h-1v-1h-1v-3h1v1h2v-1h1v1h2v-1h1v1h1v-1h1zM8 14h1v2h-2v-1h1zM1 15h2v1h-1v1h1v2h-1v-1h-1zM11 15h1v1h-1zM6 16h1v1h-1zM9 16h2v1h-1v2h-1v1h-2v-1h1v-1h1zM12 16h1v1h1v1h-2v1h-1v-2h1zM4 17h2v1h-2zM7 17h1v1h-1zM28 17v1h1v-1zM14 18h1v1h-1zM21 18h1v2h-1zM1 19h1v1h-1zM3 19h1v1h-1zM10 19h1v1h2v1h-2v1h-1v-1h-1v-1h1zM19 19h1v1h-1zM30 19h1v1h-1zM2 20h1v1h1v1h-2v1h-1v-2h1zM5 20h1v2h-1zM14 20h1v1h-1zM24 20h3v2h-1v-1h-2zM29 20h1v1h-1zM33 20h1v1h-1zM7 21h1v1h-1zM22 21h1v1h-1zM31 21h1v2h-1v2h-1v-3h1zM24 22h1v1h2v-1h2v1h-1v1h-1v1h3v1h1v2h2v1h1v2h-1v-1h-2v1h1v1h-1v1h-1v-3h-3v1h1v2h-1v-1h-1v-1h-1v-1h-1v-1h1v-1h-1v-1h1v-1h-2v-1h1zM33 22h1v4h-1v-1h-1v-2h1zM3 23h2v1h-2zM6 23h2v1h-1v1h1v1h-2v-1h-1v-1h1zM17 23h1v1h-1zM2 24h1v1h-1zM19 24h1v1h-1zM25 24v1h1v-1zM1 25h1v1h-1zM11 25h1v2h-2v1h1v2h2v2h-1v-1h-1v2h3v1h-5v-1h1v-1h-1v-2h1v-1h-1v-3h2zM18 25h1v1h-1zM21 25h1v1h-1zM16 26h2v1h-2zM19 26h2v2h-2zM26 26v3h3v-3zM32 26h1v1h-1zM1 27h7v7h-7zM27 27h1v1h-1zM2 28v5h5v-5zM13 28h1v1h-1zM15 28h2v3h1v1h-2v-2h-1zM22 28h2v1h-1v1h1v2h-1v-1h-2v-2h1zM3 29h3v3h-3zM19 29h1v1h-1zM14 31h1v1h-1zM18 32h1v1h2v-1h1v1h1v1h-6v-1h1zM33 32h1v1h-1zM15 33h1v1h-1zM24 33h1v1h-1zM26 33h1v1h-1zM28 33h1v1h-1zM31 33h1v1h-1z"/></svg>